# xmcd
#
# Track frame offsets: 
#        150
#        34352
#        64345
#        75734
#        82186
#        99747
#        145780
#        165864
#        171935
#        178128
#        189376
#        204353
#        211352
#        216760
#        224509
#        237067
#        248552
#        259560
#        268133
#        275576
#        295126
#        305358
#        314144
#        328110
#        336513
#        341483
#
# Disc length: 4798 seconds
#
# Revision: 0
# Processed by: cddbd v1.5.2PL0 Copyright (c) Steve Scherf et al.
# Submitted via: ExactAudioCopyFreeDBPlugin 1.0
#
DISCID=9912bc1a
DTITLE=Cohen (guitar), Piau (soprano), Castronovo (tenor), Villazón (t
DTITLE=enor) - Paris - Madrid
DYEAR=2018
DGENRE=Classical
TTITLE0=Rodrigo: En Aranjuez con mi amor
TTITLE1=Albéniz: Suite española No. 1, Op. 47: V. Asturias 
TTITLE2=Rodrigo: Adela
TTITLE3=Rodrigo: Coplillas de Belén
TTITLE4=Rodrigo: Coplas del pastor enamorado
TTITLE5=Medley - La jota de la Dolores and Granadinas
TTITLE6=Tárrega: Capricho árabe
TTITLE7=Falla: 7 Canciones I. El paño
TTITLE8=II. Seguidilla 
TTITLE9=III. Asturiana
TTITLE10=IV. Jota
TTITLE11=VI. Canción
TTITLE12=V. Nana
TTITLE13=VII. Polo
TTITLE14=Ravel: Vocalise
TTITLE15=Massenet: Elégie
TTITLE16=Dupont: Mandoline
TTITLE17=Sor: Seguidillas - Cuando de ti me aparto
TTITLE18=Sor: Seguidillas - Sin duda que tus ojos
TTITLE19=Tárrega: Recuerdos de la Alhambra
TTITLE20=Granados: Tonadillas - Ay majo de mi vida
TTITLE21=Granados: Tonadillas - O muerte cruel
TTITLE22=Granados: Tonadillas - De aquel majo amante
TTITLE23=Granados: Tonadillas - El mirar de la maja
TTITLE24=Granados: Tonadillas - El majo tímido
TTITLE25=Granados: Tonadillas - La maja de Goya
EXTD=
EXTT0=
EXTT1=
EXTT2=
EXTT3=
EXTT4=
EXTT5=
EXTT6=
EXTT7=
EXTT8=
EXTT9=
EXTT10=
EXTT11=
EXTT12=
EXTT13=
EXTT14=
EXTT15=
EXTT16=
EXTT17=
EXTT18=
EXTT19=
EXTT20=
EXTT21=
EXTT22=
EXTT23=
EXTT24=
EXTT25=
PLAYORDER=
